<?xml version="1.0" encoding="utf-8"?>
<!-- Svg Vector Icons : http://www.onlinewebfonts.com/icon -->
<!DOCTYPE svg PUBLIC "-//W3C//DTD SVG 1.1//EN" "http://www.w3.org/Graphics/SVG/1.1/DTD/svg11.dtd">
<svg version="1.1" xmlns="http://www.w3.org/2000/svg" xmlns:xlink="http://www.w3.org/1999/xlink" x="0px" y="0px" viewBox="0 0 1000 1000" enable-background="new 0 0 1000 1000" xml:space="preserve">
<metadata> Svg Vector Icons : http://www.onlinewebfonts.com/icon </metadata>
<g><g transform="translate(0.000000,512.000000) scale(0.100000,-0.100000)"><path d="M4540.6,5009.8c-953.3-92.1-1899-481.5-2639.4-1083.8c-218.7-176.5-563.9-525.6-736.6-742.3c-439.3-550.5-799.9-1294.8-949.5-1962.3C121.1,803.2,100,597.9,100,118.4c0-479.5,21.1-684.8,115.1-1102.9c151.5-681,521.7-1436.7,976.4-1994.9c176.5-218.7,525.6-564,742.3-736.6c550.5-439.2,1294.8-799.9,1962.3-949.5c418.2-94,623.4-115.1,1103-115.1s684.8,21.1,1103,115.1c500.6,111.3,1156.6,391.3,1588.2,677.1c746.2,496.8,1319.7,1149,1713,1948.9c239.8,489.1,376,928.4,462.3,1486.6c46,308.8,46,1033.9,0,1342.7c-86.3,558.2-222.5,997.5-462.3,1486.6c-257.1,521.7-542.9,920.7-955.3,1327.4c-404.7,400.9-774.9,663.7-1290.9,916.9c-483.4,237.9-932.2,377.9-1467.4,460.4C5447.9,5017.4,4791.9,5032.8,4540.6,5009.8z M5488.2,4605c702.1-69.1,1452.1-343.4,2042.9-748.1c1087.6-744.3,1785.8-1885.6,1948.9-3180.3c36.5-285.8,36.5-830.6,0-1116.4c-122.8-978.3-560.1-1887.5-1246.8-2591.5c-78.6-82.5-153.5-149.6-163-149.6c-11.5,0-69,30.7-130.4,69c-155.4,101.7-475.7,251.3-916.9,429.7c-479.6,195.7-690.5,305-836.3,437.3c-161.1,147.7-228.3,268.6-228.3,418.2v118.9l111.2,11.5c376,46,805.6,141.9,1010.9,228.3c147.7,63.3,276.2,157.3,305,228.3c23,53.7,21.1,65.2-26.9,138.1c-132.4,199.5-151.5,364.5-172.6,1517.3c-9.6,539-25,1070.3-36.5,1181.6c-47.9,506.4-130.4,855.5-272.4,1145.2c-78.7,161.1-122.8,224.4-234,337.6c-211,211-422,305-755.8,329.9c-101.6,9.6-170.7,24.9-216.7,53.7c-212.9,128.5-416.3,174.6-707.8,159.2c-845.9-46-1465.5-479.5-1772.4-1241.1c-193.7-481.5-259-982.1-301.2-2257.7c-24.9-759.6-74.8-1078-191.8-1237.2c-21.1-28.8-38.4-69-38.4-90.1c0-109.3,260.9-266.6,594.6-356.8c163-44.1,462.3-99.8,715.5-134.3l92.1-11.5l-13.4-128.5c-21.1-216.8-115.1-347.2-362.5-512.2c-166.9-111.3-310.8-178.4-801.8-376c-354.9-142-717.4-314.6-853.6-406.7l-101.7-69.1l-153.5,157.3C1084-2338.8,642.8-1423.8,518.2-439.8c-36.4,285.8-36.4,830.6,0,1116.4c276.2,2205.9,2115.8,3884.3,4337,3955.3C5043.1,4637.6,5242.6,4630,5488.2,4605z"/></g></g>
</svg>