<?xml version="1.0" encoding="utf-8"?>
<!-- Svg Vector Icons : http://www.onlinewebfonts.com/icon -->
<!DOCTYPE svg PUBLIC "-//W3C//DTD SVG 1.1//EN" "http://www.w3.org/Graphics/SVG/1.1/DTD/svg11.dtd">
<svg version="1.1" xmlns="http://www.w3.org/2000/svg" xmlns:xlink="http://www.w3.org/1999/xlink" x="0px" y="0px" viewBox="0 0 1000 1000" enable-background="new 0 0 1000 1000" xml:space="preserve">
<metadata> Svg Vector Icons : http://www.onlinewebfonts.com/icon </metadata>
<g><g transform="translate(0.000000,511.000000) scale(0.100000,-0.100000)"><path d="M4371.5,4979.5c-1913.1-251.4-3506.7-1600-4064.9-3440.7C159.6,1055.2,100,641.9,100,111.5c0-1295.3,477.2-2479.8,1372-3404.4c417.6-430.4,826.6-728.6,1365.6-994.9c683.9-338.8,1380.5-500.7,2162.4-500.7c1084.4,0,2085.7,332.3,2961.3,986.4c259.9,193.9,758.4,692.4,952.3,952.3c654,875.6,986.4,1876.9,986.4,2961.3c0,1293.2-479.3,2479.8-1372,3404.4c-790.4,816-1806.6,1325.1-2931.5,1465.7C5298.3,5017.9,4663.4,5017.9,4371.5,4979.5z M5671.1,4308.4c890.5-142.7,1691.6-551.8,2332.8-1193C8655.8,2463.5,9069.1,1639,9209.7,718.6c46.9-311,46.9-899,0-1214.4c-138.5-918.2-553.9-1742.7-1205.8-2396.7c-654.1-651.9-1478.5-1067.3-2396.7-1205.8c-315.3-46.9-903.3-46.9-1214.3,0c-1393.3,213-2567.2,1063.1-3197.8,2320c-522,1037.5-590.1,2275.3-185.3,3359.7C1587,3128.2,3001.7,4206.2,4640,4351C4916.9,4376.6,5366.4,4357.4,5671.1,4308.4z"/><path d="M4622.9,3788.6c-888.4-170.4-1512.6-877.7-1659.6-1887.6c-46.9-328.1-32-852.2,34.1-1182.4C3250.9-546.8,4060.5-1409.7,5000-1409.7c694.5,0,1316.6,458,1706.5,1254.8c238.6,490,336.6,896.9,353.7,1470c17,560.3-61.8,963-270.6,1384.8C6527.5,3228.3,6065.2,3616,5522,3756.6C5302.5,3814.2,4842.3,3829.1,4622.9,3788.6z"/><path d="M4403.5-1552.4c-792.5-87.3-1600-340.9-2251.9-709.4c-326-183.2-315.3-142.7-98-375c607.2-645.5,1365.6-1060.9,2249.7-1229.3c153.4-29.8,306.8-38.3,707.3-38.3c473,2.1,530.5,6.4,777.6,57.5c850,183.2,1572.3,588,2158.1,1210.1c217.3,232.2,228,191.7-95.9,375c-581.6,328.1-1291,566.7-2019.6,679.6C5564.6-1539.6,4678.3-1522.6,4403.5-1552.4z"/></g></g>
</svg>