<?xml version="1.0" encoding="utf-8"?>
<svg xmlns="http://www.w3.org/2000/svg" xml:space="preserve" width="295.9" height="295.9">
  <path fill="#CCC" stroke="#999" stroke-width="6.9044" d="M292.5 148c0 79.8-64.7 144.5-144.5 144.5S3.5 227.7 3.5 148 68.2 3.5 148 3.5 292.5 68.2 292.5 148z"/>
  <path fill="#666" d="M145.1 163.4c0 18.6-15.1 33.8-33.8 33.8-18.6 0-33.8-15.2-33.8-33.8s15.2-33.8 33.8-33.8c18.7 0 33.8 15.2 33.8 33.8m-33.7-28.2c-15.6 0-28.2 12.6-28.2 28.2s12.6 28.2 28.2 28.2 28.2-12.6 28.2-28.2-12.8-28.2-28.2-28.2m107 28.2c0 18.6-15.1 33.8-33.8 33.8-18.6 0-33.8-15.2-33.8-33.8s15.2-33.8 33.8-33.8c18.7 0 33.8 15.2 33.8 33.8m-33.9-28.2c-15.6 0-28.2 12.6-28.2 28.2s12.6 28.2 28.2 28.2 28.2-12.6 28.2-28.2-12.6-28.2-28.2-28.2"/>
  <path fill="#666" d="M108.5 132.5c0 18.6-15.2 33.8-33.8 33.8s-33.8-15.2-33.8-33.8c0-18.6 15.1-33.8 33.8-33.8 18.6-.1 33.8 15.1 33.8 33.8m-33.8-28.2c-15.6 0-28.2 12.6-28.2 28.2s12.6 28.2 28.2 28.2 28.2-12.6 28.2-28.2-12.6-28.2-28.2-28.2m107.1 28.2c0 18.6-15.2 33.8-33.8 33.8s-33.8-15.2-33.8-33.8c0-18.6 15.2-33.8 33.8-33.8 18.6-.1 33.8 15.1 33.8 33.8M148 104.3c-15.6 0-28.2 12.6-28.2 28.2s12.6 28.2 28.2 28.2 28.2-12.6 28.2-28.2-12.7-28.2-28.2-28.2m107.1 28.2c0 18.6-15.2 33.8-33.8 33.8-18.6 0-33.8-15.2-33.8-33.8 0-18.6 15.2-33.8 33.8-33.8s33.8 15.1 33.8 33.8m-33.9-28.2c-15.6 0-28.2 12.6-28.2 28.2s12.6 28.2 28.2 28.2 28.2-12.6 28.2-28.2-12.6-28.2-28.2-28.2"/>
</svg>